<svg xmlns="http://www.w3.org/2000/svg" viewBox="0 0 496 496">
  <rect width="496" height="496" rx="96" fill="#FFFFFF"/>
  <path fill="#000000" d="
M264.999695,363.023560
	C298.552917,363.453247 331.606201,363.885010 365.023865,364.321533
	C365.205322,357.409393 361.134033,353.621124 358.857330,349.200836
	C350.327789,332.640503 341.568420,316.195587 332.688446,299.819550
	C324.204987,284.174774 315.266296,268.774933 306.899231,253.069534
	C300.255341,240.598511 294.190521,227.819489 287.820831,215.201309
	C286.889099,213.355576 286.659271,210.616913 283.970367,210.457153
	C280.950256,210.277725 280.580414,213.235535 279.464081,215.143143
	C274.258667,224.038208 269.209686,233.025925 263.923798,241.872345
	C261.262573,246.326141 261.154449,250.479187 263.748779,255.011063
	C269.613037,265.255005 275.801086,275.364441 280.864410,286.001251
	C285.598724,295.946899 292.168304,304.831207 296.552185,314.927155
	C299.009613,320.586487 298.037354,322.453491 291.985229,322.150604
	C261.861298,320.642975 231.695114,321.874512 201.563385,320.569702
	C186.275558,319.907684 170.946503,320.264648 155.641632,319.916565
	C120.510765,319.117493 85.383713,318.151001 50.253819,317.306702
	C46.606480,317.219055 44.243294,315.776276 43.286079,312.167908
	C32.638546,272.030548 30.630394,231.736908 41.512814,191.318573
	C47.547565,168.904938 55.628044,147.162170 68.142876,127.558304
	C83.254684,103.886421 101.111732,82.730339 124.457214,66.183228
	C150.643478,47.622589 179.577988,36.190502 210.399231,28.962017
	C223.523895,25.883902 237.079651,25.014755 250.583054,24.796270
	C257.093567,24.690931 258.760406,27.816427 255.403564,33.362728
	C245.071228,50.434242 234.215149,67.204216 224.357849,84.543465
	C214.406845,102.047592 203.994446,119.262375 193.729614,136.573853
	C182.881821,154.868439 172.948227,173.725418 161.607330,191.700806
	C152.726013,205.777771 143.413452,219.647064 136.123291,234.552399
	C128.280411,250.587860 117.779953,265.072968 110.302673,281.273438
	C108.228127,285.768188 104.957329,289.695312 102.563316,294.062622
	C100.251152,298.280579 101.256126,299.815704 106.109200,299.857422
	C119.772507,299.974762 133.441681,299.784515 147.099396,300.105103
	C181.878387,300.921570 216.652969,301.930145 251.427750,302.917236
	C256.246796,303.054016 261.055786,303.524414 265.871643,303.802216
	C269.421600,304.007019 270.666565,302.395020 268.904846,299.251770
	C262.482849,287.794067 257.446320,275.598206 250.355789,264.500610
	C248.505920,261.605347 245.659058,261.183655 242.505981,261.144073
	C222.867737,260.897614 203.230484,260.571167 183.593094,260.259155
	C181.761826,260.230072 179.898102,260.312500 178.108124,260.003357
	C173.849792,259.267914 172.270874,256.450653 174.702835,252.870422
	C183.695572,239.631577 189.461166,224.642548 198.151291,211.174683
	C210.681671,191.755295 222.334015,171.749725 233.633942,151.552689
	C242.649124,135.439331 252.425873,119.753769 261.718658,103.793373
	C267.977936,93.043106 273.261017,81.646820 280.296539,71.447083
	C287.973053,60.318066 294.429901,48.522133 301.353088,36.987938
	C303.986755,32.600143 306.800476,31.091488 311.522949,32.716156
	C333.355865,40.227291 354.992096,47.952698 374.112488,61.583420
	C384.174408,68.756454 394.311798,75.907944 402.769836,84.748001
	C418.777740,101.479057 433.787781,119.352638 443.572388,140.508759
	C456.103699,167.603699 466.134338,195.598724 468.417786,225.849182
	C470.118561,248.380875 469.909698,270.795807 465.821014,293.017426
	C461.522308,316.380280 454.184052,338.785828 442.720612,359.710785
	C441.610962,361.736267 440.590759,364.200958 437.765167,364.008881
	C435.287567,363.840515 434.440918,361.556946 433.380615,359.654633
	C417.745972,331.604279 404.334320,302.343079 387.697906,274.852386
	C373.370514,251.177231 362.309021,225.815872 348.963074,201.643814
	C340.125153,185.636642 330.793060,169.904190 322.500885,153.591827
	C316.855927,142.487030 311.968964,131.014725 305.706055,120.201675
	C300.878937,111.867569 296.741119,103.135399 292.232666,94.614151
	C291.631042,93.477005 290.920990,92.251762 288.865540,91.832115
	C285.569611,94.768715 283.272156,98.967789 281.360260,102.988136
	C275.609283,115.081078 267.612152,125.780563 260.994995,137.321426
	C252.559906,152.032867 244.109848,166.739258 235.403183,181.290421
	C228.062119,193.559280 220.049042,205.432693 212.916245,217.816803
	C209.185165,224.294754 205.867538,231.005341 201.771805,237.299377
	C198.666718,242.071121 199.755981,243.788025 205.440536,243.807358
	C216.604065,243.845306 227.768661,243.778152 238.930634,243.922897
	C242.015457,243.962906 243.786682,242.750381 245.232697,240.084671
	C254.342178,223.291367 262.856964,206.154877 274.280518,190.699738
	C276.815155,187.270584 278.318634,183.085663 280.358124,179.281555
	C281.513550,177.126404 283.117096,175.413635 285.807007,175.563690
	C288.354492,175.705811 289.334473,177.730835 290.361633,179.688431
	C300.876251,199.726913 311.648956,219.634369 321.869812,239.821320
	C330.741516,257.343628 340.059265,274.620483 349.673615,291.728729
	C361.335693,312.480774 371.039612,334.281464 383.156464,354.745483
	C391.561676,368.940979 398.877838,383.678802 406.913544,398.044006
	C409.442780,402.565399 409.061005,406.403015 405.492920,409.767273
	C400.655304,414.328552 395.665344,418.751404 390.495972,422.930878
	C385.732635,426.781952 380.771942,430.421570 375.678986,433.826447
	C356.420776,446.701263 336.499451,458.110962 314.021118,464.794525
	C285.356384,473.317505 256.457092,475.625610 226.683990,472.624573
	C193.863861,469.316345 164.824005,456.885803 136.884766,440.305176
	C116.354073,428.121155 99.541748,412.001617 84.555840,393.858612
	C77.270935,385.038971 71.900627,374.726562 64.988091,365.534180
	C62.271393,361.921478 64.214180,358.965820 69.172279,358.834808
	C74.331093,358.698486 79.501228,358.923798 84.664932,359.050995
	C109.305695,359.657776 133.944519,360.351837 158.586761,360.889008
	C193.889832,361.658569 229.195312,362.318756 264.999695,363.023560
z"/>
</svg>
